<svg xmlns="http://www.w3.org/2000/svg" xmlns:xlink="http://www.w3.org/1999/xlink" width="500" zoomAndPan="magnify" viewBox="0 0 375 374.999991" height="500" preserveAspectRatio="xMidYMid meet" version="1.0"><defs><clipPath id="031e6c8ce5"><path d="M 82.9375 28.171875 L 292.1875 28.171875 L 292.1875 140.671875 L 82.9375 140.671875 Z M 82.9375 28.171875 " clip-rule="nonzero"/></clipPath><clipPath id="7a5bd9c5cf"><path d="M 195 159.359375 L 197 159.359375 L 197 169 L 195 169 Z M 195 159.359375 " clip-rule="nonzero"/></clipPath><clipPath id="c41fd10ec6"><path d="M 103.273438 251 L 113 251 L 113 253 L 103.273438 253 Z M 103.273438 251 " clip-rule="nonzero"/></clipPath><clipPath id="af59768781"><path d="M 103.273438 234 L 113 234 L 113 236 L 103.273438 236 Z M 103.273438 234 " clip-rule="nonzero"/></clipPath><clipPath id="c881887b69"><path d="M 178 159.359375 L 180 159.359375 L 180 169 L 178 169 Z M 178 159.359375 " clip-rule="nonzero"/></clipPath><clipPath id="3d493702e9"><path d="M 254.757812 242.628906 L 271.714844 242.628906 L 271.714844 244.488281 L 254.757812 244.488281 Z M 254.757812 242.628906 " clip-rule="nonzero"/></clipPath><clipPath id="5ddcdb1e29"><path d="M 186.542969 310.84375 L 188.398438 310.84375 L 188.398438 327.800781 L 186.542969 327.800781 Z M 186.542969 310.84375 " clip-rule="nonzero"/></clipPath><clipPath id="82191d38ae"><path d="M 103.273438 242.628906 L 120.1875 242.628906 L 120.1875 244.488281 L 103.273438 244.488281 Z M 103.273438 242.628906 " clip-rule="nonzero"/></clipPath><clipPath id="e9d90e6384"><path d="M 186.542969 159.359375 L 188.398438 159.359375 L 188.398438 176.273438 L 186.542969 176.273438 Z M 186.542969 159.359375 " clip-rule="nonzero"/></clipPath><clipPath id="1e661f51fc"><path d="M 161.390625 211 L 192 211 L 192 247 L 161.390625 247 Z M 161.390625 211 " clip-rule="nonzero"/></clipPath><clipPath id="31339b8e5b"><path d="M 186 202.3125 L 235.640625 202.3125 L 235.640625 247 L 186 247 Z M 186 202.3125 " clip-rule="nonzero"/></clipPath><clipPath id="2c76878b7f"><path d="M 187 243 L 235 243 L 235 300.5625 L 187 300.5625 Z M 187 243 " clip-rule="nonzero"/></clipPath><clipPath id="bf3d64d470"><path d="M 92.898438 148.984375 L 281.898438 148.984375 L 281.898438 337.984375 L 92.898438 337.984375 Z M 92.898438 148.984375 " clip-rule="nonzero"/></clipPath><clipPath id="15b3ee28f2"><path d="M 88.683594 144.773438 L 286.683594 144.773438 L 286.683594 342.773438 L 88.683594 342.773438 Z M 88.683594 144.773438 " clip-rule="nonzero"/></clipPath><clipPath id="6e902c361c"><path d="M 84.257812 140.34375 L 290.507812 140.34375 L 290.507812 346.59375 L 84.257812 346.59375 Z M 84.257812 140.34375 " clip-rule="nonzero"/></clipPath></defs><path fill="#007680" d="M 187.363281 70.21875 C 209.070312 70.21875 232.011719 75.3125 235.980469 84.828125 L 277.28125 68.503906 L 187.363281 33.921875 L 105.050781 65.574219 L 105.050781 65.585938 L 97.339844 68.550781 L 107.472656 72.777344 L 108.960938 73.394531 L 108.960938 73.363281 L 110.191406 73.847656 L 113.617188 75.199219 L 138.652344 85.050781 C 140.546875 80.125 147.320312 76.878906 153.148438 74.941406 C 162.304688 71.898438 174.453125 70.21875 187.363281 70.21875 Z M 187.363281 70.21875 " fill-opacity="1" fill-rule="nonzero"/><g clip-path="url(#031e6c8ce5)"><path fill="#007680" d="M 292.027344 68.425781 L 187.363281 28.171875 L 103.730469 60.34375 L 100.746094 61.503906 L 82.96875 68.324219 L 110.191406 79.699219 L 110.191406 82.378906 C 109.59375 82.652344 109.039062 83.054688 108.566406 83.574219 C 107.722656 84.5 107.136719 85.761719 106.945312 87.203125 C 106.898438 87.53125 106.875 87.859375 106.875 88.207031 C 106.875 88.558594 106.898438 88.894531 106.945312 89.234375 C 107.101562 90.359375 107.496094 91.375 108.082031 92.210938 C 108.535156 92.863281 109.109375 93.394531 109.738281 93.777344 L 105.558594 132.148438 C 104.925781 136.476562 107.25 140.34375 111.894531 140.34375 C 116.535156 140.34375 118.859375 136.464844 118.226562 132.148438 L 114.046875 93.777344 C 114.6875 93.40625 115.25 92.863281 115.703125 92.210938 C 116.289062 91.363281 116.695312 90.316406 116.839844 89.167969 C 116.886719 88.851562 116.898438 88.535156 116.898438 88.207031 C 116.898438 87.890625 116.875 87.589844 116.839844 87.296875 C 116.660156 85.828125 116.074219 84.542969 115.21875 83.597656 C 114.746094 83.078125 114.203125 82.671875 113.59375 82.402344 L 113.59375 80.972656 L 140.75 91.65625 L 140.75 122.125 C 140.964844 122.070312 141.191406 122.023438 141.414062 121.96875 C 141.832031 121.878906 142.273438 121.789062 142.734375 121.710938 C 145.15625 121.292969 148.210938 121.089844 151.863281 121.089844 C 161.738281 121.089844 175.402344 122.757812 182.953125 124.886719 C 185.816406 125.699219 188.839844 125.699219 191.703125 124.886719 C 199.253906 122.757812 212.917969 121.089844 222.789062 121.089844 C 226.441406 121.089844 229.496094 121.304688 231.933594 121.710938 C 232.394531 121.789062 232.835938 121.878906 233.25 121.96875 C 233.476562 122.015625 233.691406 122.070312 233.90625 122.125 L 233.90625 91.410156 Z M 139.824219 88.386719 L 90.148438 68.4375 L 101.398438 64.117188 L 104.386719 62.957031 L 187.351562 31.046875 L 284.652344 68.46875 L 234.863281 88.152344 L 234.007812 86.089844 C 233.296875 84.386719 230.308594 80.070312 217.84375 76.632812 C 209.242188 74.265625 198.417969 72.957031 187.363281 72.957031 C 174.644531 72.957031 162.699219 74.601562 153.722656 77.589844 C 143.636719 80.949219 141.222656 84.746094 140.660156 86.222656 Z M 139.824219 88.386719 " fill-opacity="1" fill-rule="nonzero"/></g><g clip-path="url(#7a5bd9c5cf)"><path fill="#3a828c" d="M 196.085938 159.792969 L 195.207031 168.171875 L 195.621094 168.214844 L 196.503906 159.835938 L 196.085938 159.792969 " fill-opacity="1" fill-rule="nonzero"/></g><path fill="#3a828c" d="M 204.796875 161.152344 L 203.042969 169.390625 L 203.457031 169.476562 L 205.207031 161.238281 L 204.796875 161.152344 " fill-opacity="1" fill-rule="nonzero"/><path fill="#3a828c" d="M 210.714844 171.421875 L 211.113281 171.550781 L 213.71875 163.542969 L 213.316406 163.410156 L 210.714844 171.421875 " fill-opacity="1" fill-rule="nonzero"/><path fill="#3a828c" d="M 221.941406 166.722656 L 221.554688 166.550781 L 218.128906 174.246094 L 218.515625 174.414062 L 221.941406 166.722656 " fill-opacity="1" fill-rule="nonzero"/><path fill="#3a828c" d="M 229.417969 170.535156 L 228.871094 170.21875 L 220.449219 184.804688 L 221.910156 185.648438 L 230.332031 171.058594 L 229.601562 170.636719 L 229.417969 170.535156 " fill-opacity="1" fill-rule="nonzero"/><path fill="#3a828c" d="M 236.824219 175.316406 L 231.875 182.128906 L 232.214844 182.378906 L 237.164062 175.5625 L 236.824219 175.316406 " fill-opacity="1" fill-rule="nonzero"/><path fill="#3a828c" d="M 244.003906 181.128906 L 243.691406 180.847656 L 238.054688 187.105469 L 238.367188 187.386719 L 244.003906 181.128906 " fill-opacity="1" fill-rule="nonzero"/><path fill="#3a828c" d="M 243.960938 193.015625 L 250.222656 187.378906 L 249.9375 187.066406 L 243.679688 192.699219 L 243.960938 193.015625 " fill-opacity="1" fill-rule="nonzero"/><path fill="#3a828c" d="M 248.9375 199.191406 L 255.75 194.242188 L 255.503906 193.902344 L 248.691406 198.851562 L 248.9375 199.191406 " fill-opacity="1" fill-rule="nonzero"/><path fill="#3a828c" d="M 256.824219 212.9375 L 264.515625 209.511719 L 264.347656 209.128906 L 256.652344 212.554688 L 256.824219 212.9375 " fill-opacity="1" fill-rule="nonzero"/><path fill="#3a828c" d="M 259.644531 220.355469 L 267.65625 217.75 L 267.527344 217.351562 L 259.515625 219.953125 L 259.644531 220.355469 " fill-opacity="1" fill-rule="nonzero"/><path fill="#3a828c" d="M 261.679688 228.023438 L 269.917969 226.273438 L 269.828125 225.859375 L 261.589844 227.613281 L 261.679688 228.023438 " fill-opacity="1" fill-rule="nonzero"/><path fill="#3a828c" d="M 262.898438 235.863281 L 271.273438 234.984375 L 271.230469 234.566406 L 262.851562 235.445312 L 262.898438 235.863281 " fill-opacity="1" fill-rule="nonzero"/><path fill="#3a828c" d="M 262.851562 251.710938 L 271.230469 252.589844 L 271.273438 252.171875 L 262.898438 251.292969 L 262.851562 251.710938 " fill-opacity="1" fill-rule="nonzero"/><path fill="#3a828c" d="M 261.589844 259.542969 L 269.828125 261.292969 L 269.917969 260.882812 L 261.679688 259.128906 L 261.589844 259.542969 " fill-opacity="1" fill-rule="nonzero"/><path fill="#3a828c" d="M 259.515625 267.199219 L 267.527344 269.804688 L 267.65625 269.402344 L 259.644531 266.800781 L 259.515625 267.199219 " fill-opacity="1" fill-rule="nonzero"/><path fill="#3a828c" d="M 256.652344 274.601562 L 264.347656 278.027344 L 264.515625 277.640625 L 256.824219 274.214844 L 256.652344 274.601562 " fill-opacity="1" fill-rule="nonzero"/><path fill="#3a828c" d="M 248.691406 288.300781 L 255.503906 293.253906 L 255.75 292.910156 L 248.9375 287.960938 L 248.691406 288.300781 " fill-opacity="1" fill-rule="nonzero"/><path fill="#3a828c" d="M 243.679688 294.453125 L 249.9375 300.089844 L 250.222656 299.777344 L 243.960938 294.140625 L 243.679688 294.453125 " fill-opacity="1" fill-rule="nonzero"/><path fill="#3a828c" d="M 238.054688 300.050781 L 243.691406 306.308594 L 244.003906 306.027344 L 238.367188 299.765625 L 238.054688 300.050781 " fill-opacity="1" fill-rule="nonzero"/><path fill="#3a828c" d="M 231.875 305.023438 L 236.824219 311.839844 L 237.164062 311.589844 L 232.214844 304.777344 L 231.875 305.023438 " fill-opacity="1" fill-rule="nonzero"/><path fill="#3a828c" d="M 218.128906 312.910156 L 221.554688 320.605469 L 221.941406 320.433594 L 218.515625 312.738281 L 218.128906 312.910156 " fill-opacity="1" fill-rule="nonzero"/><path fill="#3a828c" d="M 210.714844 315.730469 L 213.316406 323.742188 L 213.71875 323.613281 L 211.113281 315.601562 L 210.714844 315.730469 " fill-opacity="1" fill-rule="nonzero"/><path fill="#3a828c" d="M 203.042969 317.765625 L 204.796875 326.003906 L 205.207031 325.914062 L 203.457031 317.675781 L 203.042969 317.765625 " fill-opacity="1" fill-rule="nonzero"/><path fill="#3a828c" d="M 195.207031 318.984375 L 196.085938 327.359375 L 196.503906 327.316406 L 195.621094 318.941406 L 195.207031 318.984375 " fill-opacity="1" fill-rule="nonzero"/><path fill="#3a828c" d="M 178.476562 327.316406 L 178.894531 327.359375 L 179.777344 318.984375 L 179.359375 318.941406 L 178.476562 327.316406 " fill-opacity="1" fill-rule="nonzero"/><path fill="#3a828c" d="M 169.773438 325.914062 L 170.183594 326.003906 L 171.9375 317.765625 L 171.523438 317.675781 L 169.773438 325.914062 " fill-opacity="1" fill-rule="nonzero"/><path fill="#3a828c" d="M 163.867188 315.601562 L 161.265625 323.613281 L 161.664062 323.742188 L 164.265625 315.730469 L 163.867188 315.601562 " fill-opacity="1" fill-rule="nonzero"/><path fill="#3a828c" d="M 156.46875 312.738281 L 153.042969 320.433594 L 153.425781 320.605469 L 156.851562 312.910156 L 156.46875 312.738281 " fill-opacity="1" fill-rule="nonzero"/><path fill="#3a828c" d="M 137.816406 311.589844 L 138.15625 311.839844 L 143.105469 305.023438 L 142.765625 304.777344 L 137.816406 311.589844 " fill-opacity="1" fill-rule="nonzero"/><path fill="#3a828c" d="M 130.976562 306.027344 L 131.289062 306.308594 L 136.925781 300.050781 L 136.613281 299.765625 L 130.976562 306.027344 " fill-opacity="1" fill-rule="nonzero"/><path fill="#3a828c" d="M 131.019531 294.140625 L 124.761719 299.777344 L 125.042969 300.089844 L 131.300781 294.453125 L 131.019531 294.140625 " fill-opacity="1" fill-rule="nonzero"/><path fill="#3a828c" d="M 126.042969 287.960938 L 119.230469 292.910156 L 119.476562 293.253906 L 126.289062 288.300781 L 126.042969 287.960938 " fill-opacity="1" fill-rule="nonzero"/><path fill="#3a828c" d="M 118.160156 274.214844 L 110.464844 277.640625 L 110.636719 278.027344 L 118.328125 274.601562 L 118.160156 274.214844 " fill-opacity="1" fill-rule="nonzero"/><path fill="#3a828c" d="M 115.335938 266.800781 L 107.324219 269.402344 L 107.453125 269.804688 L 115.464844 267.199219 L 115.335938 266.800781 " fill-opacity="1" fill-rule="nonzero"/><path fill="#3a828c" d="M 113.304688 259.128906 L 105.066406 260.882812 L 105.152344 261.292969 L 113.390625 259.542969 L 113.304688 259.128906 " fill-opacity="1" fill-rule="nonzero"/><g clip-path="url(#c41fd10ec6)"><path fill="#3a828c" d="M 112.082031 251.292969 L 103.707031 252.171875 L 103.75 252.589844 L 112.128906 251.710938 L 112.082031 251.292969 " fill-opacity="1" fill-rule="nonzero"/></g><g clip-path="url(#af59768781)"><path fill="#3a828c" d="M 112.128906 235.445312 L 103.75 234.566406 L 103.707031 234.984375 L 112.082031 235.863281 L 112.128906 235.445312 " fill-opacity="1" fill-rule="nonzero"/></g><path fill="#3a828c" d="M 113.390625 227.613281 L 105.152344 225.859375 L 105.066406 226.273438 L 113.304688 228.023438 L 113.390625 227.613281 " fill-opacity="1" fill-rule="nonzero"/><path fill="#3a828c" d="M 115.464844 219.953125 L 107.453125 217.351562 L 107.324219 217.75 L 115.335938 220.355469 L 115.464844 219.953125 " fill-opacity="1" fill-rule="nonzero"/><path fill="#3a828c" d="M 118.328125 212.554688 L 110.636719 209.128906 L 110.464844 209.511719 L 118.160156 212.9375 L 118.328125 212.554688 " fill-opacity="1" fill-rule="nonzero"/><path fill="#3a828c" d="M 126.289062 198.851562 L 119.476562 193.902344 L 119.230469 194.242188 L 126.042969 199.191406 L 126.289062 198.851562 " fill-opacity="1" fill-rule="nonzero"/><path fill="#3a828c" d="M 131.300781 192.699219 L 125.042969 187.066406 L 124.761719 187.378906 L 131.019531 193.015625 L 131.300781 192.699219 " fill-opacity="1" fill-rule="nonzero"/><path fill="#3a828c" d="M 130.976562 181.128906 L 136.613281 187.386719 L 136.925781 187.105469 L 131.289062 180.847656 L 130.976562 181.128906 " fill-opacity="1" fill-rule="nonzero"/><path fill="#3a828c" d="M 137.816406 175.5625 L 142.765625 182.378906 L 143.105469 182.128906 L 138.15625 175.316406 L 137.816406 175.5625 " fill-opacity="1" fill-rule="nonzero"/><path fill="#3a828c" d="M 153.042969 166.722656 L 156.46875 174.414062 L 156.851562 174.246094 L 153.425781 166.550781 L 153.042969 166.722656 " fill-opacity="1" fill-rule="nonzero"/><path fill="#3a828c" d="M 161.265625 163.542969 L 163.867188 171.550781 L 164.265625 171.421875 L 161.664062 163.410156 L 161.265625 163.542969 " fill-opacity="1" fill-rule="nonzero"/><path fill="#3a828c" d="M 169.773438 161.238281 L 171.523438 169.476562 L 171.9375 169.390625 L 170.183594 161.152344 L 169.773438 161.238281 " fill-opacity="1" fill-rule="nonzero"/><g clip-path="url(#c881887b69)"><path fill="#3a828c" d="M 178.476562 159.835938 L 179.359375 168.214844 L 179.777344 168.171875 L 178.894531 159.792969 L 178.476562 159.835938 " fill-opacity="1" fill-rule="nonzero"/></g><path fill="#3a828c" d="M 245.421875 209.160156 L 246.261719 210.617188 L 260.851562 202.195312 L 260.429688 201.464844 L 260.324219 201.28125 L 260.324219 201.285156 L 260.007812 200.738281 L 245.421875 209.160156 " fill-opacity="1" fill-rule="nonzero"/><g clip-path="url(#3d493702e9)"><path fill="#3a828c" d="M 254.867188 242.734375 L 254.867188 244.417969 L 271.714844 244.417969 L 271.714844 242.734375 L 254.867188 242.734375 " fill-opacity="1" fill-rule="nonzero"/></g><path fill="#3a828c" d="M 246.261719 276.535156 L 245.421875 277.996094 L 260.007812 286.417969 L 260.429688 285.6875 L 260.535156 285.507812 L 260.851562 284.960938 L 246.261719 276.535156 " fill-opacity="1" fill-rule="nonzero"/><path fill="#3a828c" d="M 220.449219 302.351562 L 228.871094 316.9375 L 229.417969 316.621094 L 229.601562 316.515625 L 230.332031 316.09375 L 221.910156 301.507812 L 220.449219 302.351562 " fill-opacity="1" fill-rule="nonzero"/><g clip-path="url(#5ddcdb1e29)"><path fill="#3a828c" d="M 186.648438 310.957031 L 186.648438 327.800781 L 188.332031 327.800781 L 188.332031 310.957031 L 186.648438 310.957031 " fill-opacity="1" fill-rule="nonzero"/></g><path fill="#3a828c" d="M 153.070312 301.507812 L 144.648438 316.09375 L 145.195312 316.410156 L 145.378906 316.515625 L 146.109375 316.9375 L 154.53125 302.351562 L 153.070312 301.507812 " fill-opacity="1" fill-rule="nonzero"/><path fill="#3a828c" d="M 128.71875 276.535156 L 114.128906 284.960938 L 114.445312 285.507812 L 114.550781 285.6875 L 114.972656 286.417969 L 129.558594 277.996094 L 128.71875 276.535156 " fill-opacity="1" fill-rule="nonzero"/><g clip-path="url(#82191d38ae)"><path fill="#3a828c" d="M 120.113281 242.734375 L 103.269531 242.734375 L 103.269531 244.417969 L 120.113281 244.417969 L 120.113281 242.734375 " fill-opacity="1" fill-rule="nonzero"/></g><path fill="#3a828c" d="M 129.558594 209.160156 L 114.972656 200.738281 L 114.65625 201.285156 L 114.65625 201.28125 L 114.550781 201.464844 L 114.128906 202.195312 L 128.71875 210.617188 L 129.558594 209.160156 " fill-opacity="1" fill-rule="nonzero"/><path fill="#3a828c" d="M 153.070312 185.648438 L 154.53125 184.804688 L 146.109375 170.21875 L 145.378906 170.636719 L 145.195312 170.742188 L 144.648438 171.058594 L 153.070312 185.648438 " fill-opacity="1" fill-rule="nonzero"/><g clip-path="url(#e9d90e6384)"><path fill="#3a828c" d="M 187.28125 159.355469 L 186.648438 159.355469 L 186.648438 176.199219 L 188.332031 176.199219 L 188.332031 159.355469 L 187.28125 159.355469 " fill-opacity="1" fill-rule="nonzero"/></g><g clip-path="url(#1e661f51fc)"><path fill="#3a828c" d="M 171.929688 216.351562 C 171.3125 215.609375 170.527344 215.09375 169.679688 214.796875 L 169.714844 214.769531 L 161.402344 211.726562 L 162.921875 220.441406 L 162.957031 220.414062 C 163.09375 221.300781 163.472656 222.167969 164.085938 222.898438 C 164.871094 223.847656 165.9375 224.4375 167.058594 224.644531 C 169.261719 225.058594 171.230469 226.289062 172.667969 228.003906 L 188.476562 246.921875 L 191.242188 244.609375 L 175.433594 225.691406 C 173.996094 223.976562 173.136719 221.816406 173.121094 219.574219 C 173.101562 218.445312 172.714844 217.300781 171.929688 216.351562 Z M 171.929688 216.351562 " fill-opacity="1" fill-rule="nonzero"/></g><g clip-path="url(#31339b8e5b)"><path fill="#3a828c" d="M 235.988281 202.3125 L 226.910156 208.238281 L 186.375 244.5 L 188.558594 246.941406 L 229.09375 210.675781 Z M 235.988281 202.3125 " fill-opacity="1" fill-rule="nonzero"/></g><g clip-path="url(#2c76878b7f)"><path fill="#82c4cd" d="M 234.660156 300.222656 L 227.660156 290.457031 L 188.964844 243.523438 L 187.703125 244.5625 L 226.402344 291.496094 Z M 234.660156 300.222656 " fill-opacity="1" fill-rule="nonzero"/></g><path fill="#82c4cd" d="M 193.84375 243.523438 C 193.84375 243.859375 193.8125 244.191406 193.746094 244.523438 C 193.679688 244.851562 193.582031 245.171875 193.457031 245.480469 C 193.328125 245.792969 193.167969 246.085938 192.984375 246.367188 C 192.796875 246.644531 192.585938 246.902344 192.347656 247.140625 C 192.109375 247.378906 191.851562 247.589844 191.570312 247.777344 C 191.292969 247.960938 190.996094 248.121094 190.6875 248.25 C 190.378906 248.378906 190.058594 248.472656 189.730469 248.539062 C 189.398438 248.605469 189.066406 248.636719 188.730469 248.636719 C 188.394531 248.636719 188.0625 248.605469 187.734375 248.539062 C 187.402344 248.472656 187.085938 248.378906 186.773438 248.25 C 186.464844 248.121094 186.167969 247.960938 185.890625 247.777344 C 185.609375 247.589844 185.351562 247.378906 185.117188 247.140625 C 184.878906 246.902344 184.667969 246.644531 184.480469 246.367188 C 184.292969 246.085938 184.136719 245.792969 184.007812 245.480469 C 183.878906 245.171875 183.78125 244.851562 183.714844 244.523438 C 183.652344 244.191406 183.617188 243.859375 183.617188 243.523438 C 183.617188 243.1875 183.652344 242.855469 183.714844 242.527344 C 183.78125 242.199219 183.878906 241.878906 184.007812 241.566406 C 184.136719 241.257812 184.292969 240.964844 184.480469 240.683594 C 184.667969 240.40625 184.878906 240.148438 185.117188 239.910156 C 185.351562 239.671875 185.609375 239.460938 185.890625 239.273438 C 186.167969 239.085938 186.464844 238.929688 186.773438 238.800781 C 187.085938 238.671875 187.402344 238.574219 187.734375 238.507812 C 188.0625 238.445312 188.394531 238.410156 188.730469 238.410156 C 189.066406 238.410156 189.398438 238.445312 189.730469 238.507812 C 190.058594 238.574219 190.378906 238.671875 190.6875 238.800781 C 190.996094 238.929688 191.292969 239.085938 191.570312 239.273438 C 191.851562 239.460938 192.109375 239.671875 192.347656 239.910156 C 192.585938 240.148438 192.796875 240.40625 192.984375 240.683594 C 193.167969 240.964844 193.328125 241.257812 193.457031 241.566406 C 193.582031 241.878906 193.679688 242.199219 193.746094 242.527344 C 193.8125 242.855469 193.84375 243.1875 193.84375 243.523438 Z M 193.84375 243.523438 " fill-opacity="1" fill-rule="nonzero"/><path fill="#ffffff" d="M 188.730469 248.792969 C 185.832031 248.792969 183.464844 246.433594 183.464844 243.523438 C 183.464844 240.617188 185.820312 238.257812 188.730469 238.257812 C 191.632812 238.257812 193.996094 240.617188 193.996094 243.523438 C 193.996094 246.433594 191.632812 248.792969 188.730469 248.792969 Z M 188.730469 238.566406 C 185.992188 238.566406 183.769531 240.789062 183.769531 243.523438 C 183.769531 246.261719 185.992188 248.484375 188.730469 248.484375 C 191.46875 248.484375 193.691406 246.261719 193.691406 243.523438 C 193.683594 240.789062 191.460938 238.566406 188.730469 238.566406 Z M 188.730469 238.566406 " fill-opacity="1" fill-rule="nonzero"/><path fill="#82c4cd" d="M 221.585938 280.691406 C 221.585938 281.070312 221.515625 281.433594 221.371094 281.785156 C 221.222656 282.136719 221.015625 282.445312 220.75 282.714844 C 220.480469 282.984375 220.171875 283.191406 219.820312 283.335938 C 219.46875 283.480469 219.105469 283.554688 218.722656 283.554688 C 218.34375 283.554688 217.980469 283.480469 217.628906 283.335938 C 217.277344 283.191406 216.96875 282.984375 216.699219 282.714844 C 216.429688 282.445312 216.222656 282.136719 216.078125 281.785156 C 215.933594 281.433594 215.859375 281.070312 215.859375 280.691406 C 215.859375 280.3125 215.933594 279.945312 216.078125 279.59375 C 216.222656 279.242188 216.429688 278.933594 216.699219 278.664062 C 216.96875 278.398438 217.277344 278.191406 217.628906 278.042969 C 217.980469 277.898438 218.34375 277.828125 218.722656 277.828125 C 219.105469 277.828125 219.46875 277.898438 219.820312 278.042969 C 220.171875 278.191406 220.480469 278.398438 220.75 278.664062 C 221.015625 278.933594 221.222656 279.242188 221.371094 279.59375 C 221.515625 279.945312 221.585938 280.3125 221.585938 280.691406 Z M 221.585938 280.691406 " fill-opacity="1" fill-rule="nonzero"/><path fill="#ffffff" d="M 218.722656 283.707031 C 217.0625 283.707031 215.707031 282.351562 215.707031 280.691406 C 215.707031 279.027344 217.0625 277.671875 218.722656 277.671875 C 220.386719 277.671875 221.742188 279.027344 221.742188 280.691406 C 221.730469 282.351562 220.386719 283.707031 218.722656 283.707031 Z M 218.722656 277.988281 C 217.234375 277.988281 216.015625 279.199219 216.015625 280.699219 C 216.015625 282.191406 217.222656 283.410156 218.722656 283.410156 C 220.222656 283.410156 221.433594 282.199219 221.433594 280.699219 C 221.425781 279.199219 220.214844 277.988281 218.722656 277.988281 Z M 218.722656 277.988281 " fill-opacity="1" fill-rule="nonzero"/><g clip-path="url(#bf3d64d470)"><path fill="#3a828c" d="M 187.5 148.984375 C 135.238281 148.984375 92.898438 191.363281 92.898438 243.585938 C 92.898438 295.804688 135.238281 338.183594 187.5 338.183594 C 239.757812 338.183594 282.097656 295.804688 282.097656 243.585938 C 282.097656 191.363281 239.757812 148.984375 187.5 148.984375 Z M 187.5 332.195312 C 138.558594 332.195312 98.886719 292.523438 98.886719 243.585938 C 98.886719 194.644531 138.558594 154.972656 187.5 154.972656 C 236.4375 154.972656 276.109375 194.644531 276.109375 243.585938 C 276.109375 292.523438 236.4375 332.195312 187.5 332.195312 Z M 187.5 332.195312 " fill-opacity="1" fill-rule="nonzero"/></g><g clip-path="url(#15b3ee28f2)"><path fill="#82c4cd" d="M 187.496094 144.773438 C 132.910156 144.773438 88.683594 189.039062 88.683594 243.585938 C 88.683594 298.128906 132.910156 342.398438 187.496094 342.398438 C 242.082031 342.398438 286.308594 298.128906 286.308594 243.585938 C 286.308594 189.039062 242.082031 144.773438 187.496094 144.773438 Z M 187.496094 336.140625 C 136.378906 336.140625 94.941406 294.703125 94.941406 243.585938 C 94.941406 192.464844 136.378906 151.027344 187.496094 151.027344 C 238.617188 151.027344 280.054688 192.464844 280.054688 243.585938 C 280.054688 294.703125 238.617188 336.140625 187.496094 336.140625 Z M 187.496094 336.140625 " fill-opacity="1" fill-rule="nonzero"/></g><g clip-path="url(#6e902c361c)"><path fill="#3a828c" d="M 187.496094 140.34375 C 130.464844 140.34375 84.257812 186.59375 84.257812 243.582031 C 84.257812 300.570312 130.464844 346.816406 187.496094 346.816406 C 244.523438 346.816406 290.730469 300.570312 290.730469 243.582031 C 290.730469 186.59375 244.523438 140.34375 187.496094 140.34375 Z M 187.496094 340.28125 C 134.085938 340.28125 90.792969 296.988281 90.792969 243.582031 C 90.792969 190.171875 134.085938 146.878906 187.496094 146.878906 C 240.902344 146.878906 284.195312 190.171875 284.195312 243.582031 C 284.195312 296.988281 240.902344 340.28125 187.496094 340.28125 Z M 187.496094 340.28125 " fill-opacity="1" fill-rule="nonzero"/></g></svg>